<mxfile host="Electron" agent="Mozilla/5.0 (Windows NT 10.0; Win64; x64) AppleWebKit/537.36 (KHTML, like Gecko) draw.io/28.1.2 Chrome/138.0.7204.243 Electron/37.4.0 Safari/537.36" version="28.1.2">
  <diagram name="หน้า-1" id="q44FNppJD5MsTuRVj5zI">
    <mxGraphModel dx="1489" dy="894" grid="1" gridSize="10" guides="1" tooltips="1" connect="1" arrows="1" fold="1" page="1" pageScale="1" pageWidth="827" pageHeight="1169" math="0" shadow="0">
      <root>
        <mxCell id="0" />
        <mxCell id="1" parent="0" />
        <mxCell id="bfSoi7d7s7vuI1GLdOdw-100" style="edgeStyle=orthogonalEdgeStyle;rounded=0;orthogonalLoop=1;jettySize=auto;html=1;entryX=0.5;entryY=0;entryDx=0;entryDy=0;" edge="1" parent="1" source="bfSoi7d7s7vuI1GLdOdw-37" target="bfSoi7d7s7vuI1GLdOdw-38">
          <mxGeometry relative="1" as="geometry" />
        </mxCell>
        <mxCell id="bfSoi7d7s7vuI1GLdOdw-37" value="Start" style="ellipse;whiteSpace=wrap;html=1;" vertex="1" parent="1">
          <mxGeometry x="100" y="110" width="100" height="40" as="geometry" />
        </mxCell>
        <mxCell id="bfSoi7d7s7vuI1GLdOdw-101" style="edgeStyle=orthogonalEdgeStyle;rounded=0;orthogonalLoop=1;jettySize=auto;html=1;entryX=0.5;entryY=0;entryDx=0;entryDy=0;" edge="1" parent="1" source="bfSoi7d7s7vuI1GLdOdw-38" target="bfSoi7d7s7vuI1GLdOdw-39">
          <mxGeometry relative="1" as="geometry" />
        </mxCell>
        <mxCell id="bfSoi7d7s7vuI1GLdOdw-38" value="รับค่า N" style="parallelogram;whiteSpace=wrap;html=1;" vertex="1" parent="1">
          <mxGeometry x="90" y="170" width="120" height="50" as="geometry" />
        </mxCell>
        <mxCell id="bfSoi7d7s7vuI1GLdOdw-102" style="edgeStyle=orthogonalEdgeStyle;rounded=0;orthogonalLoop=1;jettySize=auto;html=1;entryX=0.5;entryY=0;entryDx=0;entryDy=0;" edge="1" parent="1" source="bfSoi7d7s7vuI1GLdOdw-39" target="bfSoi7d7s7vuI1GLdOdw-40">
          <mxGeometry relative="1" as="geometry" />
        </mxCell>
        <mxCell id="bfSoi7d7s7vuI1GLdOdw-39" value="ประกาศอาร์เรย์ arr[N]" style="rectangle;whiteSpace=wrap;html=1;" vertex="1" parent="1">
          <mxGeometry x="70" y="240" width="160" height="50" as="geometry" />
        </mxCell>
        <mxCell id="bfSoi7d7s7vuI1GLdOdw-81" style="edgeStyle=orthogonalEdgeStyle;rounded=0;orthogonalLoop=1;jettySize=auto;html=1;entryX=0.5;entryY=0;entryDx=0;entryDy=0;" edge="1" parent="1" source="bfSoi7d7s7vuI1GLdOdw-40" target="bfSoi7d7s7vuI1GLdOdw-41">
          <mxGeometry relative="1" as="geometry" />
        </mxCell>
        <mxCell id="bfSoi7d7s7vuI1GLdOdw-40" value="i = 0" style="rectangle;whiteSpace=wrap;html=1;" vertex="1" parent="1">
          <mxGeometry x="100" y="310" width="100" height="50" as="geometry" />
        </mxCell>
        <mxCell id="bfSoi7d7s7vuI1GLdOdw-79" style="edgeStyle=orthogonalEdgeStyle;rounded=0;orthogonalLoop=1;jettySize=auto;html=1;" edge="1" parent="1" source="bfSoi7d7s7vuI1GLdOdw-41" target="bfSoi7d7s7vuI1GLdOdw-42">
          <mxGeometry relative="1" as="geometry" />
        </mxCell>
        <mxCell id="bfSoi7d7s7vuI1GLdOdw-85" style="edgeStyle=orthogonalEdgeStyle;rounded=0;orthogonalLoop=1;jettySize=auto;html=1;entryX=0.5;entryY=0;entryDx=0;entryDy=0;" edge="1" parent="1" source="bfSoi7d7s7vuI1GLdOdw-41" target="bfSoi7d7s7vuI1GLdOdw-44">
          <mxGeometry relative="1" as="geometry" />
        </mxCell>
        <mxCell id="bfSoi7d7s7vuI1GLdOdw-41" value="i &lt; N ?" style="rhombus;whiteSpace=wrap;html=1;" vertex="1" parent="1">
          <mxGeometry x="90" y="380" width="120" height="60" as="geometry" />
        </mxCell>
        <mxCell id="bfSoi7d7s7vuI1GLdOdw-80" style="edgeStyle=orthogonalEdgeStyle;rounded=0;orthogonalLoop=1;jettySize=auto;html=1;entryX=0.5;entryY=0;entryDx=0;entryDy=0;" edge="1" parent="1" source="bfSoi7d7s7vuI1GLdOdw-42" target="bfSoi7d7s7vuI1GLdOdw-43">
          <mxGeometry relative="1" as="geometry" />
        </mxCell>
        <mxCell id="bfSoi7d7s7vuI1GLdOdw-42" value="รับค่า arr[i]" style="parallelogram;whiteSpace=wrap;html=1;" vertex="1" parent="1">
          <mxGeometry x="280" y="385" width="140" height="50" as="geometry" />
        </mxCell>
        <mxCell id="bfSoi7d7s7vuI1GLdOdw-82" style="edgeStyle=orthogonalEdgeStyle;rounded=0;orthogonalLoop=1;jettySize=auto;html=1;" edge="1" parent="1" source="bfSoi7d7s7vuI1GLdOdw-43">
          <mxGeometry relative="1" as="geometry">
            <mxPoint x="150" y="369.9999999999999" as="targetPoint" />
            <Array as="points">
              <mxPoint x="470" y="490" />
              <mxPoint x="470" y="370" />
            </Array>
          </mxGeometry>
        </mxCell>
        <mxCell id="bfSoi7d7s7vuI1GLdOdw-43" value="i++" style="rectangle;whiteSpace=wrap;html=1;" vertex="1" parent="1">
          <mxGeometry x="310" y="470" width="80" height="40" as="geometry" />
        </mxCell>
        <mxCell id="bfSoi7d7s7vuI1GLdOdw-86" style="edgeStyle=orthogonalEdgeStyle;rounded=0;orthogonalLoop=1;jettySize=auto;html=1;entryX=0.5;entryY=0;entryDx=0;entryDy=0;" edge="1" parent="1" source="bfSoi7d7s7vuI1GLdOdw-44" target="bfSoi7d7s7vuI1GLdOdw-45">
          <mxGeometry relative="1" as="geometry" />
        </mxCell>
        <mxCell id="bfSoi7d7s7vuI1GLdOdw-44" value="แสดง Index:" style="parallelogram;whiteSpace=wrap;html=1;" vertex="1" parent="1">
          <mxGeometry x="80" y="470" width="140" height="50" as="geometry" />
        </mxCell>
        <mxCell id="bfSoi7d7s7vuI1GLdOdw-87" style="edgeStyle=orthogonalEdgeStyle;rounded=0;orthogonalLoop=1;jettySize=auto;html=1;entryX=0.5;entryY=0;entryDx=0;entryDy=0;" edge="1" parent="1" source="bfSoi7d7s7vuI1GLdOdw-45" target="bfSoi7d7s7vuI1GLdOdw-46">
          <mxGeometry relative="1" as="geometry" />
        </mxCell>
        <mxCell id="bfSoi7d7s7vuI1GLdOdw-45" value="i = 0" style="rectangle;whiteSpace=wrap;html=1;" vertex="1" parent="1">
          <mxGeometry x="100" y="540" width="100" height="50" as="geometry" />
        </mxCell>
        <mxCell id="bfSoi7d7s7vuI1GLdOdw-89" style="edgeStyle=orthogonalEdgeStyle;rounded=0;orthogonalLoop=1;jettySize=auto;html=1;entryX=0;entryY=0.5;entryDx=0;entryDy=0;" edge="1" parent="1" source="bfSoi7d7s7vuI1GLdOdw-46" target="bfSoi7d7s7vuI1GLdOdw-47">
          <mxGeometry relative="1" as="geometry" />
        </mxCell>
        <mxCell id="bfSoi7d7s7vuI1GLdOdw-92" style="edgeStyle=orthogonalEdgeStyle;rounded=0;orthogonalLoop=1;jettySize=auto;html=1;entryX=0.5;entryY=0;entryDx=0;entryDy=0;" edge="1" parent="1" source="bfSoi7d7s7vuI1GLdOdw-46" target="bfSoi7d7s7vuI1GLdOdw-49">
          <mxGeometry relative="1" as="geometry" />
        </mxCell>
        <mxCell id="bfSoi7d7s7vuI1GLdOdw-46" value="i &lt; N ?" style="rhombus;whiteSpace=wrap;html=1;" vertex="1" parent="1">
          <mxGeometry x="90" y="610" width="120" height="60" as="geometry" />
        </mxCell>
        <mxCell id="bfSoi7d7s7vuI1GLdOdw-90" style="edgeStyle=orthogonalEdgeStyle;rounded=0;orthogonalLoop=1;jettySize=auto;html=1;entryX=0.5;entryY=0;entryDx=0;entryDy=0;" edge="1" parent="1" source="bfSoi7d7s7vuI1GLdOdw-47" target="bfSoi7d7s7vuI1GLdOdw-48">
          <mxGeometry relative="1" as="geometry" />
        </mxCell>
        <mxCell id="bfSoi7d7s7vuI1GLdOdw-47" value="แสดง i" style="parallelogram;whiteSpace=wrap;html=1;" vertex="1" parent="1">
          <mxGeometry x="300" y="615" width="100" height="50" as="geometry" />
        </mxCell>
        <mxCell id="bfSoi7d7s7vuI1GLdOdw-91" style="edgeStyle=orthogonalEdgeStyle;rounded=0;orthogonalLoop=1;jettySize=auto;html=1;" edge="1" parent="1" source="bfSoi7d7s7vuI1GLdOdw-48">
          <mxGeometry relative="1" as="geometry">
            <mxPoint x="150" y="600" as="targetPoint" />
            <Array as="points">
              <mxPoint x="470" y="715" />
              <mxPoint x="470" y="600" />
            </Array>
          </mxGeometry>
        </mxCell>
        <mxCell id="bfSoi7d7s7vuI1GLdOdw-48" value="i++" style="rectangle;whiteSpace=wrap;html=1;" vertex="1" parent="1">
          <mxGeometry x="310" y="695" width="80" height="40" as="geometry" />
        </mxCell>
        <mxCell id="bfSoi7d7s7vuI1GLdOdw-93" style="edgeStyle=orthogonalEdgeStyle;rounded=0;orthogonalLoop=1;jettySize=auto;html=1;entryX=0.5;entryY=0;entryDx=0;entryDy=0;" edge="1" parent="1" source="bfSoi7d7s7vuI1GLdOdw-49" target="bfSoi7d7s7vuI1GLdOdw-50">
          <mxGeometry relative="1" as="geometry" />
        </mxCell>
        <mxCell id="bfSoi7d7s7vuI1GLdOdw-49" value="ขึ้นบรรทัดใหม่" style="parallelogram;whiteSpace=wrap;html=1;" vertex="1" parent="1">
          <mxGeometry x="80" y="690" width="140" height="50" as="geometry" />
        </mxCell>
        <mxCell id="bfSoi7d7s7vuI1GLdOdw-94" style="edgeStyle=orthogonalEdgeStyle;rounded=0;orthogonalLoop=1;jettySize=auto;html=1;entryX=0.5;entryY=0;entryDx=0;entryDy=0;" edge="1" parent="1" source="bfSoi7d7s7vuI1GLdOdw-50" target="bfSoi7d7s7vuI1GLdOdw-51">
          <mxGeometry relative="1" as="geometry" />
        </mxCell>
        <mxCell id="bfSoi7d7s7vuI1GLdOdw-50" value="แสดง Array:" style="parallelogram;whiteSpace=wrap;html=1;" vertex="1" parent="1">
          <mxGeometry x="80" y="760" width="140" height="50" as="geometry" />
        </mxCell>
        <mxCell id="bfSoi7d7s7vuI1GLdOdw-96" style="edgeStyle=orthogonalEdgeStyle;rounded=0;orthogonalLoop=1;jettySize=auto;html=1;entryX=0.5;entryY=0;entryDx=0;entryDy=0;" edge="1" parent="1" source="bfSoi7d7s7vuI1GLdOdw-51" target="bfSoi7d7s7vuI1GLdOdw-52">
          <mxGeometry relative="1" as="geometry" />
        </mxCell>
        <mxCell id="bfSoi7d7s7vuI1GLdOdw-51" value="i = 0" style="rectangle;whiteSpace=wrap;html=1;" vertex="1" parent="1">
          <mxGeometry x="100" y="830" width="100" height="50" as="geometry" />
        </mxCell>
        <mxCell id="bfSoi7d7s7vuI1GLdOdw-71" style="edgeStyle=orthogonalEdgeStyle;rounded=0;orthogonalLoop=1;jettySize=auto;html=1;entryX=0;entryY=0.5;entryDx=0;entryDy=0;" edge="1" parent="1" source="bfSoi7d7s7vuI1GLdOdw-52" target="bfSoi7d7s7vuI1GLdOdw-53">
          <mxGeometry relative="1" as="geometry" />
        </mxCell>
        <mxCell id="bfSoi7d7s7vuI1GLdOdw-97" style="edgeStyle=orthogonalEdgeStyle;rounded=0;orthogonalLoop=1;jettySize=auto;html=1;entryX=0.5;entryY=0;entryDx=0;entryDy=0;" edge="1" parent="1" source="bfSoi7d7s7vuI1GLdOdw-52" target="bfSoi7d7s7vuI1GLdOdw-58">
          <mxGeometry relative="1" as="geometry" />
        </mxCell>
        <mxCell id="bfSoi7d7s7vuI1GLdOdw-52" value="i &lt; N ?" style="rhombus;whiteSpace=wrap;html=1;" vertex="1" parent="1">
          <mxGeometry x="90" y="900" width="120" height="60" as="geometry" />
        </mxCell>
        <mxCell id="bfSoi7d7s7vuI1GLdOdw-72" style="edgeStyle=orthogonalEdgeStyle;rounded=0;orthogonalLoop=1;jettySize=auto;html=1;entryX=0.5;entryY=0;entryDx=0;entryDy=0;" edge="1" parent="1" source="bfSoi7d7s7vuI1GLdOdw-53" target="bfSoi7d7s7vuI1GLdOdw-54">
          <mxGeometry relative="1" as="geometry" />
        </mxCell>
        <mxCell id="bfSoi7d7s7vuI1GLdOdw-53" value="เรียกใช้ฟังก์ชัน isPrime(arr[i])" style="rectangle;shape=process;whiteSpace=wrap;html=1;strokeWidth=2;" vertex="1" parent="1">
          <mxGeometry x="280" y="905" width="200" height="50" as="geometry" />
        </mxCell>
        <mxCell id="bfSoi7d7s7vuI1GLdOdw-73" style="edgeStyle=orthogonalEdgeStyle;rounded=0;orthogonalLoop=1;jettySize=auto;html=1;entryX=0;entryY=0.5;entryDx=0;entryDy=0;" edge="1" parent="1" source="bfSoi7d7s7vuI1GLdOdw-54" target="bfSoi7d7s7vuI1GLdOdw-55">
          <mxGeometry relative="1" as="geometry" />
        </mxCell>
        <mxCell id="bfSoi7d7s7vuI1GLdOdw-74" style="edgeStyle=orthogonalEdgeStyle;rounded=0;orthogonalLoop=1;jettySize=auto;html=1;entryX=0;entryY=0.5;entryDx=0;entryDy=0;" edge="1" parent="1" source="bfSoi7d7s7vuI1GLdOdw-54" target="bfSoi7d7s7vuI1GLdOdw-56">
          <mxGeometry relative="1" as="geometry">
            <Array as="points">
              <mxPoint x="380" y="1115" />
            </Array>
          </mxGeometry>
        </mxCell>
        <mxCell id="bfSoi7d7s7vuI1GLdOdw-54" value="เป็นจำนวนเฉพาะ?" style="rhombus;whiteSpace=wrap;html=1;" vertex="1" parent="1">
          <mxGeometry x="300" y="1000" width="160" height="60" as="geometry" />
        </mxCell>
        <mxCell id="bfSoi7d7s7vuI1GLdOdw-75" style="edgeStyle=orthogonalEdgeStyle;rounded=0;orthogonalLoop=1;jettySize=auto;html=1;entryX=0;entryY=0.5;entryDx=0;entryDy=0;" edge="1" parent="1" source="bfSoi7d7s7vuI1GLdOdw-55" target="bfSoi7d7s7vuI1GLdOdw-57">
          <mxGeometry relative="1" as="geometry" />
        </mxCell>
        <mxCell id="bfSoi7d7s7vuI1GLdOdw-55" value="แสดง arr[i]" style="parallelogram;whiteSpace=wrap;html=1;" vertex="1" parent="1">
          <mxGeometry x="530" y="1005" width="120" height="50" as="geometry" />
        </mxCell>
        <mxCell id="bfSoi7d7s7vuI1GLdOdw-77" style="edgeStyle=orthogonalEdgeStyle;rounded=0;orthogonalLoop=1;jettySize=auto;html=1;entryX=0;entryY=0.5;entryDx=0;entryDy=0;" edge="1" parent="1" source="bfSoi7d7s7vuI1GLdOdw-56" target="bfSoi7d7s7vuI1GLdOdw-57">
          <mxGeometry relative="1" as="geometry" />
        </mxCell>
        <mxCell id="bfSoi7d7s7vuI1GLdOdw-56" value="แสดง &#39;#&#39;" style="parallelogram;whiteSpace=wrap;html=1;" vertex="1" parent="1">
          <mxGeometry x="530" y="1090" width="120" height="50" as="geometry" />
        </mxCell>
        <mxCell id="bfSoi7d7s7vuI1GLdOdw-99" style="edgeStyle=orthogonalEdgeStyle;rounded=0;orthogonalLoop=1;jettySize=auto;html=1;" edge="1" parent="1" source="bfSoi7d7s7vuI1GLdOdw-57">
          <mxGeometry relative="1" as="geometry">
            <mxPoint x="150" y="890" as="targetPoint" />
            <Array as="points">
              <mxPoint x="740" y="890" />
            </Array>
          </mxGeometry>
        </mxCell>
        <mxCell id="bfSoi7d7s7vuI1GLdOdw-57" value="i++" style="rectangle;whiteSpace=wrap;html=1;" vertex="1" parent="1">
          <mxGeometry x="700" y="1050" width="80" height="40" as="geometry" />
        </mxCell>
        <mxCell id="bfSoi7d7s7vuI1GLdOdw-98" style="edgeStyle=orthogonalEdgeStyle;rounded=0;orthogonalLoop=1;jettySize=auto;html=1;entryX=0.5;entryY=0;entryDx=0;entryDy=0;" edge="1" parent="1" source="bfSoi7d7s7vuI1GLdOdw-58" target="bfSoi7d7s7vuI1GLdOdw-59">
          <mxGeometry relative="1" as="geometry" />
        </mxCell>
        <mxCell id="bfSoi7d7s7vuI1GLdOdw-58" value="ขึ้นบรรทัดใหม่" style="parallelogram;whiteSpace=wrap;html=1;" vertex="1" parent="1">
          <mxGeometry x="80" y="1050" width="140" height="50" as="geometry" />
        </mxCell>
        <mxCell id="bfSoi7d7s7vuI1GLdOdw-59" value="Stop" style="ellipse;whiteSpace=wrap;html=1;" vertex="1" parent="1">
          <mxGeometry x="100" y="1190" width="100" height="40" as="geometry" />
        </mxCell>
        <mxCell id="bfSoi7d7s7vuI1GLdOdw-104" style="edgeStyle=orthogonalEdgeStyle;rounded=0;orthogonalLoop=1;jettySize=auto;html=1;entryX=0.5;entryY=0;entryDx=0;entryDy=0;" edge="1" parent="1" source="bfSoi7d7s7vuI1GLdOdw-60" target="bfSoi7d7s7vuI1GLdOdw-61">
          <mxGeometry relative="1" as="geometry" />
        </mxCell>
        <mxCell id="bfSoi7d7s7vuI1GLdOdw-60" value="Start isPrime" style="ellipse;whiteSpace=wrap;html=1;" vertex="1" parent="1">
          <mxGeometry x="770" y="170" width="120" height="40" as="geometry" />
        </mxCell>
        <mxCell id="bfSoi7d7s7vuI1GLdOdw-105" style="edgeStyle=orthogonalEdgeStyle;rounded=0;orthogonalLoop=1;jettySize=auto;html=1;entryX=0.5;entryY=0;entryDx=0;entryDy=0;" edge="1" parent="1" source="bfSoi7d7s7vuI1GLdOdw-61" target="bfSoi7d7s7vuI1GLdOdw-63">
          <mxGeometry relative="1" as="geometry" />
        </mxCell>
        <mxCell id="bfSoi7d7s7vuI1GLdOdw-110" style="edgeStyle=orthogonalEdgeStyle;rounded=0;orthogonalLoop=1;jettySize=auto;html=1;" edge="1" parent="1" source="bfSoi7d7s7vuI1GLdOdw-61" target="bfSoi7d7s7vuI1GLdOdw-62">
          <mxGeometry relative="1" as="geometry" />
        </mxCell>
        <mxCell id="bfSoi7d7s7vuI1GLdOdw-61" value="num &lt; 2 ?" style="rhombus;whiteSpace=wrap;html=1;" vertex="1" parent="1">
          <mxGeometry x="770" y="230" width="120" height="60" as="geometry" />
        </mxCell>
        <mxCell id="bfSoi7d7s7vuI1GLdOdw-62" value="return 0" style="rectangle;whiteSpace=wrap;html=1;" vertex="1" parent="1">
          <mxGeometry x="970" y="235" width="100" height="50" as="geometry" />
        </mxCell>
        <mxCell id="bfSoi7d7s7vuI1GLdOdw-107" style="edgeStyle=orthogonalEdgeStyle;rounded=0;orthogonalLoop=1;jettySize=auto;html=1;entryX=0.5;entryY=0;entryDx=0;entryDy=0;" edge="1" parent="1" source="bfSoi7d7s7vuI1GLdOdw-63" target="bfSoi7d7s7vuI1GLdOdw-64">
          <mxGeometry relative="1" as="geometry" />
        </mxCell>
        <mxCell id="bfSoi7d7s7vuI1GLdOdw-63" value="i = 2" style="rectangle;whiteSpace=wrap;html=1;" vertex="1" parent="1">
          <mxGeometry x="780" y="310" width="100" height="50" as="geometry" />
        </mxCell>
        <mxCell id="bfSoi7d7s7vuI1GLdOdw-108" style="edgeStyle=orthogonalEdgeStyle;rounded=0;orthogonalLoop=1;jettySize=auto;html=1;entryX=0.5;entryY=0;entryDx=0;entryDy=0;" edge="1" parent="1" source="bfSoi7d7s7vuI1GLdOdw-64" target="bfSoi7d7s7vuI1GLdOdw-68">
          <mxGeometry relative="1" as="geometry" />
        </mxCell>
        <mxCell id="bfSoi7d7s7vuI1GLdOdw-111" style="edgeStyle=orthogonalEdgeStyle;rounded=0;orthogonalLoop=1;jettySize=auto;html=1;entryX=0;entryY=0.5;entryDx=0;entryDy=0;" edge="1" parent="1" source="bfSoi7d7s7vuI1GLdOdw-64" target="bfSoi7d7s7vuI1GLdOdw-65">
          <mxGeometry relative="1" as="geometry" />
        </mxCell>
        <mxCell id="bfSoi7d7s7vuI1GLdOdw-64" value="i &lt;= sqrt(num) ?" style="rhombus;whiteSpace=wrap;html=1;" vertex="1" parent="1">
          <mxGeometry x="760" y="380" width="140" height="60" as="geometry" />
        </mxCell>
        <mxCell id="bfSoi7d7s7vuI1GLdOdw-112" style="edgeStyle=orthogonalEdgeStyle;rounded=0;orthogonalLoop=1;jettySize=auto;html=1;entryX=0;entryY=0.5;entryDx=0;entryDy=0;" edge="1" parent="1" source="bfSoi7d7s7vuI1GLdOdw-65" target="bfSoi7d7s7vuI1GLdOdw-66">
          <mxGeometry relative="1" as="geometry" />
        </mxCell>
        <mxCell id="bfSoi7d7s7vuI1GLdOdw-113" style="edgeStyle=orthogonalEdgeStyle;rounded=0;orthogonalLoop=1;jettySize=auto;html=1;entryX=0.5;entryY=0;entryDx=0;entryDy=0;" edge="1" parent="1" source="bfSoi7d7s7vuI1GLdOdw-65" target="bfSoi7d7s7vuI1GLdOdw-67">
          <mxGeometry relative="1" as="geometry" />
        </mxCell>
        <mxCell id="bfSoi7d7s7vuI1GLdOdw-65" value="num % i == 0 ?" style="rhombus;whiteSpace=wrap;html=1;" vertex="1" parent="1">
          <mxGeometry x="970" y="380" width="140" height="60" as="geometry" />
        </mxCell>
        <mxCell id="bfSoi7d7s7vuI1GLdOdw-66" value="return 0" style="rectangle;whiteSpace=wrap;html=1;" vertex="1" parent="1">
          <mxGeometry x="1170" y="385" width="100" height="50" as="geometry" />
        </mxCell>
        <mxCell id="bfSoi7d7s7vuI1GLdOdw-114" style="edgeStyle=orthogonalEdgeStyle;rounded=0;orthogonalLoop=1;jettySize=auto;html=1;" edge="1" parent="1" source="bfSoi7d7s7vuI1GLdOdw-67">
          <mxGeometry relative="1" as="geometry">
            <mxPoint x="830" y="370" as="targetPoint" />
            <Array as="points">
              <mxPoint x="1290" y="490" />
              <mxPoint x="1290" y="370" />
            </Array>
          </mxGeometry>
        </mxCell>
        <mxCell id="bfSoi7d7s7vuI1GLdOdw-67" value="i++" style="rectangle;whiteSpace=wrap;html=1;" vertex="1" parent="1">
          <mxGeometry x="1000" y="470" width="80" height="40" as="geometry" />
        </mxCell>
        <mxCell id="bfSoi7d7s7vuI1GLdOdw-109" style="edgeStyle=orthogonalEdgeStyle;rounded=0;orthogonalLoop=1;jettySize=auto;html=1;entryX=0.5;entryY=0;entryDx=0;entryDy=0;" edge="1" parent="1" source="bfSoi7d7s7vuI1GLdOdw-68" target="bfSoi7d7s7vuI1GLdOdw-69">
          <mxGeometry relative="1" as="geometry" />
        </mxCell>
        <mxCell id="bfSoi7d7s7vuI1GLdOdw-68" value="return 1" style="rectangle;whiteSpace=wrap;html=1;" vertex="1" parent="1">
          <mxGeometry x="780" y="460" width="100" height="50" as="geometry" />
        </mxCell>
        <mxCell id="bfSoi7d7s7vuI1GLdOdw-69" value="Stop isPrime" style="ellipse;whiteSpace=wrap;html=1;" vertex="1" parent="1">
          <mxGeometry x="770" y="540" width="120" height="40" as="geometry" />
        </mxCell>
      </root>
    </mxGraphModel>
  </diagram>
</mxfile>
